<?xml version="1.0" encoding="UTF-8" standalone="no"?>
<!-- Created with Inkscape (http://www.inkscape.org/) -->

<svg
   xmlns:dc="http://purl.org/dc/elements/1.1/"
   xmlns:cc="http://creativecommons.org/ns#"
   xmlns:rdf="http://www.w3.org/1999/02/22-rdf-syntax-ns#"
   xmlns:svg="http://www.w3.org/2000/svg"
   xmlns="http://www.w3.org/2000/svg"
   xmlns:sodipodi="http://sodipodi.sourceforge.net/DTD/sodipodi-0.dtd"
   xmlns:inkscape="http://www.inkscape.org/namespaces/inkscape"
   width="123.3728mm"
   height="46.131454mm"
   viewBox="0 0 437.14768 163.45791"
   id="svg2"
   version="1.1"
   inkscape:version="0.91 r13725"
   sodipodi:docname="synapse_size_dynamics.svg"
   inkscape:export-filename="/home/fh/pub/graphics/synapse_size_dynamics/synapse_size_dyamics.png"
   inkscape:export-xdpi="600"
   inkscape:export-ydpi="600">
  <defs
     id="defs4" />
  <sodipodi:namedview
     id="base"
     pagecolor="#ffffff"
     bordercolor="#666666"
     borderopacity="1.0"
     inkscape:pageopacity="0.0"
     inkscape:pageshadow="2"
     inkscape:zoom="1.4"
     inkscape:cx="168.53798"
     inkscape:cy="165.81533"
     inkscape:document-units="px"
     inkscape:current-layer="layer1"
     showgrid="false"
     inkscape:window-width="1855"
     inkscape:window-height="1056"
     inkscape:window-x="65"
     inkscape:window-y="24"
     inkscape:window-maximized="1"
     fit-margin-top="3"
     fit-margin-left="3"
     fit-margin-right="3"
     fit-margin-bottom="3" />
  <metadata
     id="metadata7">
    <rdf:RDF>
      <cc:Work
         rdf:about="">
        <dc:format>image/svg+xml</dc:format>
        <dc:type
           rdf:resource="http://purl.org/dc/dcmitype/StillImage" />
        <dc:title></dc:title>
      </cc:Work>
    </rdf:RDF>
  </metadata>
  <g
     inkscape:label="Layer 1"
     inkscape:groupmode="layer"
     id="layer1"
     transform="translate(-38.59521,-61.041721)">
    <g
       id="g4227"
       inkscape:export-xdpi="600"
       inkscape:export-ydpi="600">
      <path
         sodipodi:open="true"
         d="M 67.182022,95.831387 A 15.178572,11.160714 0 0 1 55.870576,83.627335 15.178572,11.160714 0 0 1 70.931114,73.855765 15.178572,11.160714 0 0 1 85.991653,83.627334 15.178572,11.160714 0 0 1 74.680207,95.831387"
         sodipodi:end="1.3212142"
         sodipodi:start="1.8203784"
         sodipodi:ry="11.160714"
         sodipodi:rx="15.178572"
         sodipodi:cy="85.016479"
         sodipodi:cx="70.931114"
         sodipodi:type="arc"
         id="path4165"
         style="fill:none;fill-opacity:1;stroke:#000000;stroke-width:1.26600003;stroke-miterlimit:4;stroke-dasharray:none;stroke-opacity:1" />
      <path
         inkscape:connector-curvature="0"
         id="path4169"
         d="m 50,113.07649 16.785714,0 0,-17.857144"
         style="fill:none;fill-rule:evenodd;stroke:#000000;stroke-width:1px;stroke-linecap:butt;stroke-linejoin:miter;stroke-opacity:1" />
      <path
         style="fill:none;fill-rule:evenodd;stroke:#000000;stroke-width:1px;stroke-linecap:butt;stroke-linejoin:miter;stroke-opacity:1"
         d="m 91.655645,113.07649 -16.785714,0 0,-17.857144"
         id="path4171"
         inkscape:connector-curvature="0" />
      <path
         inkscape:connector-curvature="0"
         id="path4211"
         d="m 49.939417,117.65543 41.731927,0"
         style="fill:none;fill-rule:evenodd;stroke:#000000;stroke-width:1px;stroke-linecap:butt;stroke-linejoin:miter;stroke-opacity:1" />
    </g>
    <path
       d="m 129.00177,95.19568 a 11.3905,7.8777184 0 0 1 -8.0686,-8.744505 11.3905,7.8777184 0 0 1 11.45808,-6.693946 11.3905,7.8777184 0 0 1 11.11709,6.963538 11.3905,7.8777184 0 0 1 -8.5003,8.54664 l -2.81344,-7.633633 z"
       sodipodi:end="1.3212142"
       sodipodi:start="1.8549091"
       sodipodi:ry="7.8777184"
       sodipodi:rx="11.3905"
       sodipodi:cy="87.633774"
       sodipodi:cx="132.1946"
       sodipodi:type="arc"
       id="path4213"
       style="fill:none;fill-opacity:1;stroke:#000000;stroke-width:1.26600003;stroke-miterlimit:4;stroke-dasharray:none;stroke-opacity:1"
       inkscape:export-xdpi="600"
       inkscape:export-ydpi="600" />
    <path
       inkscape:connector-curvature="0"
       id="path4215"
       d="m 111.11423,113.07649 16.78571,0 0,-17.85714"
       style="fill:none;fill-rule:evenodd;stroke:#000000;stroke-width:1px;stroke-linecap:butt;stroke-linejoin:miter;stroke-opacity:1"
       inkscape:export-xdpi="600"
       inkscape:export-ydpi="600" />
    <path
       style="fill:none;fill-rule:evenodd;stroke:#000000;stroke-width:1px;stroke-linecap:butt;stroke-linejoin:miter;stroke-opacity:1"
       d="m 152.76987,113.07649 -16.78571,0 0,-17.85714"
       id="path4217"
       inkscape:connector-curvature="0"
       inkscape:export-xdpi="600"
       inkscape:export-ydpi="600" />
    <path
       inkscape:connector-curvature="0"
       id="path4219"
       d="m 111.05365,117.65543 41.73192,0"
       style="fill:none;fill-rule:evenodd;stroke:#000000;stroke-width:1px;stroke-linecap:butt;stroke-linejoin:miter;stroke-opacity:1"
       inkscape:export-xdpi="600"
       inkscape:export-ydpi="600" />
    <g
       id="g4239"
       transform="translate(116.2988,-0.12255205)"
       inkscape:export-xdpi="600"
       inkscape:export-ydpi="600">
      <path
         style="fill:none;fill-opacity:1;stroke:#000000;stroke-width:1.26600003;stroke-miterlimit:4;stroke-dasharray:none;stroke-opacity:1"
         id="path4241"
         sodipodi:type="arc"
         sodipodi:cx="70.931114"
         sodipodi:cy="85.016479"
         sodipodi:rx="15.178572"
         sodipodi:ry="11.160714"
         sodipodi:start="1.8203784"
         sodipodi:end="1.3212142"
         d="M 67.182022,95.831387 A 15.178572,11.160714 0 0 1 55.870576,83.627335 15.178572,11.160714 0 0 1 70.931114,73.855765 15.178572,11.160714 0 0 1 85.991653,83.627334 15.178572,11.160714 0 0 1 74.680207,95.831387"
         sodipodi:open="true" />
      <path
         style="fill:none;fill-rule:evenodd;stroke:#000000;stroke-width:1px;stroke-linecap:butt;stroke-linejoin:miter;stroke-opacity:1"
         d="m 50,113.07649 16.785714,0 0,-17.857144"
         id="path4243"
         inkscape:connector-curvature="0" />
      <path
         inkscape:connector-curvature="0"
         id="path4245"
         d="m 91.655645,113.07649 -16.785714,0 0,-17.857144"
         style="fill:none;fill-rule:evenodd;stroke:#000000;stroke-width:1px;stroke-linecap:butt;stroke-linejoin:miter;stroke-opacity:1" />
      <path
         style="fill:none;fill-rule:evenodd;stroke:#000000;stroke-width:1px;stroke-linecap:butt;stroke-linejoin:miter;stroke-opacity:1"
         d="m 49.939417,117.65543 41.731927,0"
         id="path4247"
         inkscape:connector-curvature="0" />
    </g>
    <g
       id="g4331"
       transform="translate(253.57143,-1.4285714)"
       inkscape:export-xdpi="600"
       inkscape:export-ydpi="600">
      <path
         style="fill:none;fill-opacity:1;stroke:#000000;stroke-width:1.26600003;stroke-miterlimit:4;stroke-dasharray:none;stroke-opacity:1"
         id="path4333"
         sodipodi:type="arc"
         sodipodi:cx="70.931114"
         sodipodi:cy="85.016479"
         sodipodi:rx="15.178572"
         sodipodi:ry="11.160714"
         sodipodi:start="1.8203784"
         sodipodi:end="1.3212142"
         d="M 67.182022,95.831387 A 15.178572,11.160714 0 0 1 55.870576,83.627335 15.178572,11.160714 0 0 1 70.931114,73.855765 15.178572,11.160714 0 0 1 85.991653,83.627334 15.178572,11.160714 0 0 1 74.680207,95.831387"
         sodipodi:open="true" />
      <path
         style="fill:none;fill-rule:evenodd;stroke:#000000;stroke-width:1px;stroke-linecap:butt;stroke-linejoin:miter;stroke-opacity:1"
         d="m 50,113.07649 16.785714,0 0,-17.857144"
         id="path4335"
         inkscape:connector-curvature="0" />
      <path
         inkscape:connector-curvature="0"
         id="path4337"
         d="m 91.655645,113.07649 -16.785714,0 0,-17.857144"
         style="fill:none;fill-rule:evenodd;stroke:#000000;stroke-width:1px;stroke-linecap:butt;stroke-linejoin:miter;stroke-opacity:1" />
      <path
         style="fill:none;fill-rule:evenodd;stroke:#000000;stroke-width:1px;stroke-linecap:butt;stroke-linejoin:miter;stroke-opacity:1"
         d="m 49.939417,117.65543 41.731927,0"
         id="path4339"
         inkscape:connector-curvature="0" />
    </g>
    <path
       style="fill:none;fill-opacity:1;stroke:#000000;stroke-width:1.26600003;stroke-miterlimit:4;stroke-dasharray:none;stroke-opacity:1"
       id="path4341"
       sodipodi:type="arc"
       sodipodi:cx="385.76602"
       sodipodi:cy="86.2052"
       sodipodi:rx="11.3905"
       sodipodi:ry="7.8777184"
       sodipodi:start="1.8549091"
       sodipodi:end="1.3212142"
       d="m 382.5732,93.767107 a 11.3905,7.8777184 0 0 1 -8.0686,-8.744505 11.3905,7.8777184 0 0 1 11.45807,-6.693946 11.3905,7.8777184 0 0 1 11.11709,6.963537 11.3905,7.8777184 0 0 1 -8.5003,8.54664 L 385.76602,86.2052 Z"
       inkscape:export-xdpi="600"
       inkscape:export-ydpi="600" />
    <path
       style="fill:none;fill-rule:evenodd;stroke:#000000;stroke-width:1px;stroke-linecap:butt;stroke-linejoin:miter;stroke-opacity:1"
       d="m 364.68566,111.64792 16.78571,0 0,-17.857141"
       id="path4343"
       inkscape:connector-curvature="0"
       inkscape:export-xdpi="600"
       inkscape:export-ydpi="600" />
    <path
       inkscape:connector-curvature="0"
       id="path4345"
       d="m 406.3413,111.64792 -16.78571,0 0,-17.857141"
       style="fill:none;fill-rule:evenodd;stroke:#000000;stroke-width:1px;stroke-linecap:butt;stroke-linejoin:miter;stroke-opacity:1"
       inkscape:export-xdpi="600"
       inkscape:export-ydpi="600" />
    <path
       style="fill:none;fill-rule:evenodd;stroke:#000000;stroke-width:1px;stroke-linecap:butt;stroke-linejoin:miter;stroke-opacity:1"
       d="m 364.62508,116.22686 41.73192,0"
       id="path4347"
       inkscape:connector-curvature="0"
       inkscape:export-xdpi="600"
       inkscape:export-ydpi="600" />
    <g
       transform="translate(369.87023,-1.5511235)"
       id="g4349"
       inkscape:export-xdpi="600"
       inkscape:export-ydpi="600">
      <path
         sodipodi:open="true"
         d="M 67.182022,95.831387 A 15.178572,11.160714 0 0 1 55.870576,83.627335 15.178572,11.160714 0 0 1 70.931114,73.855765 15.178572,11.160714 0 0 1 85.991653,83.627334 15.178572,11.160714 0 0 1 74.680207,95.831387"
         sodipodi:end="1.3212142"
         sodipodi:start="1.8203784"
         sodipodi:ry="11.160714"
         sodipodi:rx="15.178572"
         sodipodi:cy="85.016479"
         sodipodi:cx="70.931114"
         sodipodi:type="arc"
         id="path4351"
         style="fill:none;fill-opacity:1;stroke:#000000;stroke-width:1.26600003;stroke-miterlimit:4;stroke-dasharray:none;stroke-opacity:1" />
      <path
         inkscape:connector-curvature="0"
         id="path4353"
         d="m 50,113.07649 16.785714,0 0,-17.857144"
         style="fill:none;fill-rule:evenodd;stroke:#000000;stroke-width:1px;stroke-linecap:butt;stroke-linejoin:miter;stroke-opacity:1" />
      <path
         style="fill:none;fill-rule:evenodd;stroke:#000000;stroke-width:1px;stroke-linecap:butt;stroke-linejoin:miter;stroke-opacity:1"
         d="m 91.655645,113.07649 -16.785714,0 0,-17.857144"
         id="path4355"
         inkscape:connector-curvature="0" />
      <path
         inkscape:connector-curvature="0"
         id="path4357"
         d="m 49.939417,117.65543 41.731927,0"
         style="fill:none;fill-rule:evenodd;stroke:#000000;stroke-width:1px;stroke-linecap:butt;stroke-linejoin:miter;stroke-opacity:1" />
    </g>
    <g
       id="g4359"
       transform="translate(-0.71428572,94.285714)"
       inkscape:export-xdpi="600"
       inkscape:export-ydpi="600">
      <path
         style="fill:none;fill-opacity:1;stroke:#000000;stroke-width:1.26600003;stroke-miterlimit:4;stroke-dasharray:none;stroke-opacity:1"
         id="path4361"
         sodipodi:type="arc"
         sodipodi:cx="70.931114"
         sodipodi:cy="85.016479"
         sodipodi:rx="15.178572"
         sodipodi:ry="11.160714"
         sodipodi:start="1.8203784"
         sodipodi:end="1.3212142"
         d="M 67.182022,95.831387 A 15.178572,11.160714 0 0 1 55.870576,83.627335 15.178572,11.160714 0 0 1 70.931114,73.855765 15.178572,11.160714 0 0 1 85.991653,83.627334 15.178572,11.160714 0 0 1 74.680207,95.831387"
         sodipodi:open="true" />
      <path
         style="fill:none;fill-rule:evenodd;stroke:#000000;stroke-width:1px;stroke-linecap:butt;stroke-linejoin:miter;stroke-opacity:1"
         d="m 50,113.07649 16.785714,0 0,-17.857144"
         id="path4363"
         inkscape:connector-curvature="0" />
      <path
         inkscape:connector-curvature="0"
         id="path4365"
         d="m 91.655645,113.07649 -16.785714,0 0,-17.857144"
         style="fill:none;fill-rule:evenodd;stroke:#000000;stroke-width:1px;stroke-linecap:butt;stroke-linejoin:miter;stroke-opacity:1" />
      <path
         style="fill:none;fill-rule:evenodd;stroke:#000000;stroke-width:1px;stroke-linecap:butt;stroke-linejoin:miter;stroke-opacity:1"
         d="m 49.939417,117.65543 41.731927,0"
         id="path4367"
         inkscape:connector-curvature="0" />
    </g>
    <path
       style="fill:none;fill-opacity:1;stroke:#000000;stroke-width:1.26600003;stroke-miterlimit:4;stroke-dasharray:none;stroke-opacity:1"
       id="path4369"
       sodipodi:type="arc"
       sodipodi:cx="131.48032"
       sodipodi:cy="181.91949"
       sodipodi:rx="11.3905"
       sodipodi:ry="7.8777184"
       sodipodi:start="1.8549091"
       sodipodi:end="1.3212142"
       d="m 128.28749,189.4814 a 11.3905,7.8777184 0 0 1 -8.0686,-8.7445 11.3905,7.8777184 0 0 1 11.45808,-6.69395 11.3905,7.8777184 0 0 1 11.11709,6.96354 11.3905,7.8777184 0 0 1 -8.5003,8.54664 l -2.81344,-7.63364 z"
       inkscape:export-xdpi="600"
       inkscape:export-ydpi="600" />
    <path
       style="fill:none;fill-rule:evenodd;stroke:#000000;stroke-width:1px;stroke-linecap:butt;stroke-linejoin:miter;stroke-opacity:1"
       d="m 110.39994,207.3622 16.78571,0 0,-17.85714"
       id="path4371"
       inkscape:connector-curvature="0"
       inkscape:export-xdpi="600"
       inkscape:export-ydpi="600" />
    <path
       inkscape:connector-curvature="0"
       id="path4373"
       d="m 152.05558,207.3622 -16.78571,0 0,-17.85714"
       style="fill:none;fill-rule:evenodd;stroke:#000000;stroke-width:1px;stroke-linecap:butt;stroke-linejoin:miter;stroke-opacity:1"
       inkscape:export-xdpi="600"
       inkscape:export-ydpi="600" />
    <path
       style="fill:none;fill-rule:evenodd;stroke:#000000;stroke-width:1px;stroke-linecap:butt;stroke-linejoin:miter;stroke-opacity:1"
       d="m 110.33936,211.94114 41.73192,0"
       id="path4375"
       inkscape:connector-curvature="0"
       inkscape:export-xdpi="600"
       inkscape:export-ydpi="600" />
    <g
       transform="translate(115.58451,94.163162)"
       id="g4377"
       inkscape:export-xdpi="600"
       inkscape:export-ydpi="600">
      <path
         sodipodi:open="true"
         d="M 67.182022,95.831387 A 15.178572,11.160714 0 0 1 55.870576,83.627335 15.178572,11.160714 0 0 1 70.931114,73.855765 15.178572,11.160714 0 0 1 85.991653,83.627334 15.178572,11.160714 0 0 1 74.680207,95.831387"
         sodipodi:end="1.3212142"
         sodipodi:start="1.8203784"
         sodipodi:ry="11.160714"
         sodipodi:rx="15.178572"
         sodipodi:cy="85.016479"
         sodipodi:cx="70.931114"
         sodipodi:type="arc"
         id="path4379"
         style="fill:none;fill-opacity:1;stroke:#000000;stroke-width:1.26600003;stroke-miterlimit:4;stroke-dasharray:none;stroke-opacity:1" />
      <path
         inkscape:connector-curvature="0"
         id="path4381"
         d="m 50,113.07649 16.785714,0 0,-17.857144"
         style="fill:none;fill-rule:evenodd;stroke:#000000;stroke-width:1px;stroke-linecap:butt;stroke-linejoin:miter;stroke-opacity:1" />
      <path
         style="fill:none;fill-rule:evenodd;stroke:#000000;stroke-width:1px;stroke-linecap:butt;stroke-linejoin:miter;stroke-opacity:1"
         d="m 91.655645,113.07649 -16.785714,0 0,-17.857144"
         id="path4383"
         inkscape:connector-curvature="0" />
      <path
         inkscape:connector-curvature="0"
         id="path4385"
         d="m 49.939417,117.65543 41.731927,0"
         style="fill:none;fill-rule:evenodd;stroke:#000000;stroke-width:1px;stroke-linecap:butt;stroke-linejoin:miter;stroke-opacity:1" />
    </g>
    <g
       transform="translate(257.14285,95.714285)"
       id="g4387"
       inkscape:export-xdpi="600"
       inkscape:export-ydpi="600">
      <path
         sodipodi:open="true"
         d="M 67.182022,95.831387 A 15.178572,11.160714 0 0 1 55.870576,83.627335 15.178572,11.160714 0 0 1 70.931114,73.855765 15.178572,11.160714 0 0 1 85.991653,83.627334 15.178572,11.160714 0 0 1 74.680207,95.831387"
         sodipodi:end="1.3212142"
         sodipodi:start="1.8203784"
         sodipodi:ry="11.160714"
         sodipodi:rx="15.178572"
         sodipodi:cy="85.016479"
         sodipodi:cx="70.931114"
         sodipodi:type="arc"
         id="path4389"
         style="fill:none;fill-opacity:1;stroke:#000000;stroke-width:1.26600003;stroke-miterlimit:4;stroke-dasharray:none;stroke-opacity:1" />
      <path
         inkscape:connector-curvature="0"
         id="path4391"
         d="m 50,113.07649 16.785714,0 0,-17.857144"
         style="fill:none;fill-rule:evenodd;stroke:#000000;stroke-width:1px;stroke-linecap:butt;stroke-linejoin:miter;stroke-opacity:1" />
      <path
         style="fill:none;fill-rule:evenodd;stroke:#000000;stroke-width:1px;stroke-linecap:butt;stroke-linejoin:miter;stroke-opacity:1"
         d="m 91.655645,113.07649 -16.785714,0 0,-17.857144"
         id="path4393"
         inkscape:connector-curvature="0" />
      <path
         inkscape:connector-curvature="0"
         id="path4395"
         d="m 49.939417,117.65543 41.731927,0"
         style="fill:none;fill-rule:evenodd;stroke:#000000;stroke-width:1px;stroke-linecap:butt;stroke-linejoin:miter;stroke-opacity:1" />
    </g>
    <path
       d="m 386.14461,190.90997 a 11.3905,7.8777184 0 0 1 -8.0686,-8.7445 11.3905,7.8777184 0 0 1 11.45807,-6.69395 11.3905,7.8777184 0 0 1 11.11709,6.96354 11.3905,7.8777184 0 0 1 -8.50029,8.54664 l -2.81345,-7.63363 z"
       sodipodi:end="1.3212142"
       sodipodi:start="1.8549091"
       sodipodi:ry="7.8777184"
       sodipodi:rx="11.3905"
       sodipodi:cy="183.34807"
       sodipodi:cx="389.33743"
       sodipodi:type="arc"
       id="path4397"
       style="fill:none;fill-opacity:1;stroke:#000000;stroke-width:1.26600003;stroke-miterlimit:4;stroke-dasharray:none;stroke-opacity:1"
       inkscape:export-xdpi="600"
       inkscape:export-ydpi="600" />
    <path
       inkscape:connector-curvature="0"
       id="path4399"
       d="m 368.25708,208.79077 16.78571,0 0,-17.85714"
       style="fill:none;fill-rule:evenodd;stroke:#000000;stroke-width:1px;stroke-linecap:butt;stroke-linejoin:miter;stroke-opacity:1"
       inkscape:export-xdpi="600"
       inkscape:export-ydpi="600" />
    <path
       style="fill:none;fill-rule:evenodd;stroke:#000000;stroke-width:1px;stroke-linecap:butt;stroke-linejoin:miter;stroke-opacity:1"
       d="m 409.91272,208.79077 -16.78571,0 0,-17.85714"
       id="path4401"
       inkscape:connector-curvature="0"
       inkscape:export-xdpi="600"
       inkscape:export-ydpi="600" />
    <path
       inkscape:connector-curvature="0"
       id="path4403"
       d="m 368.1965,213.36971 41.73192,0"
       style="fill:none;fill-rule:evenodd;stroke:#000000;stroke-width:1px;stroke-linecap:butt;stroke-linejoin:miter;stroke-opacity:1"
       inkscape:export-xdpi="600"
       inkscape:export-ydpi="600" />
    <g
       id="g4405"
       transform="translate(373.44165,95.591733)"
       inkscape:export-xdpi="600"
       inkscape:export-ydpi="600">
      <path
         style="fill:none;fill-opacity:1;stroke:#000000;stroke-width:1.26600003;stroke-miterlimit:4;stroke-dasharray:none;stroke-opacity:1"
         id="path4407"
         sodipodi:type="arc"
         sodipodi:cx="70.931114"
         sodipodi:cy="85.016479"
         sodipodi:rx="15.178572"
         sodipodi:ry="11.160714"
         sodipodi:start="1.8203784"
         sodipodi:end="1.3212142"
         d="M 67.182022,95.831387 A 15.178572,11.160714 0 0 1 55.870576,83.627335 15.178572,11.160714 0 0 1 70.931114,73.855765 15.178572,11.160714 0 0 1 85.991653,83.627334 15.178572,11.160714 0 0 1 74.680207,95.831387"
         sodipodi:open="true" />
      <path
         style="fill:none;fill-rule:evenodd;stroke:#000000;stroke-width:1px;stroke-linecap:butt;stroke-linejoin:miter;stroke-opacity:1"
         d="m 50,113.07649 16.785714,0 0,-17.857144"
         id="path4409"
         inkscape:connector-curvature="0" />
      <path
         inkscape:connector-curvature="0"
         id="path4411"
         d="m 91.655645,113.07649 -16.785714,0 0,-17.857144"
         style="fill:none;fill-rule:evenodd;stroke:#000000;stroke-width:1px;stroke-linecap:butt;stroke-linejoin:miter;stroke-opacity:1" />
      <path
         style="fill:none;fill-rule:evenodd;stroke:#000000;stroke-width:1px;stroke-linecap:butt;stroke-linejoin:miter;stroke-opacity:1"
         d="m 49.939417,117.65543 41.731927,0"
         id="path4413"
         inkscape:connector-curvature="0" />
    </g>
  </g>
</svg>
